<svg width="21" height="21" viewBox="0 0 21 21" fill="none" xmlns="http://www.w3.org/2000/svg">
<g id="check-box-icon">
<path id="Vector" d="M9.75977 13.6587L14.7181 8.72119L13.6556 7.65869L9.75977 11.5337L7.98893 9.78369L6.92643 10.8462L9.75977 13.6587ZM5.32227 17.6587C4.90977 17.6587 4.55664 17.5118 4.26289 17.2181C3.96914 16.9243 3.82227 16.5712 3.82227 16.1587V5.15869C3.82227 4.74619 3.96914 4.39307 4.26289 4.09932C4.55664 3.80557 4.90977 3.65869 5.32227 3.65869H16.3223C16.7348 3.65869 17.0879 3.80557 17.3816 4.09932C17.6754 4.39307 17.8223 4.74619 17.8223 5.15869V16.1587C17.8223 16.5712 17.6754 16.9243 17.3816 17.2181C17.0879 17.5118 16.7348 17.6587 16.3223 17.6587H5.32227ZM5.32227 16.1587H16.3223V5.15869H5.32227V16.1587Z" fill="#5B616E"/>
</g>
</svg>
