<svg width="41" height="39" viewBox="0 0 41 39" fill="none" xmlns="http://www.w3.org/2000/svg">
<g id="logo">
<path id="Vector 2" d="M1 17.3043H8.20518C8.21975 10.1962 9.64625 7.50525 17.3455 7.50525H34.4755C36.2719 7.50525 37.7259 6.049 37.7259 4.25263C37.7259 2.45625 36.2733 1 34.4769 1H15.7397C3.67624 1 1.00005 10.8814 1 17.3043Z" fill="black" stroke="black"/>
<path id="Vector 3" d="M1 21.9979H8.20518C8.21975 29.106 9.64625 31.797 17.3455 31.797H34.4755C36.2719 31.797 37.7259 33.2532 37.7259 35.0496C37.7259 36.846 36.2733 38.3022 34.4769 38.3022H15.7398C3.67624 38.3022 1 28.4208 1 21.9979Z" fill="black" stroke="black"/>
<path id="Rectangle 2" d="M13.6621 21.998H38.6538C39.9499 21.998 41.0006 23.0488 41.0006 24.3449C41.0006 25.641 39.9499 26.6917 38.6538 26.6917H13.6621V21.998Z" fill="black"/>
<path id="Rectangle 3" d="M13.6621 12.6108H38.6538C39.9499 12.6108 41.0006 13.6616 41.0006 14.9577C41.0006 16.2538 39.9499 17.3045 38.6538 17.3045H13.6621V12.6108Z" fill="black"/>
</g>
</svg>
