<svg width="20" height="21" viewBox="0 0 20 21" fill="none" xmlns="http://www.w3.org/2000/svg">
<g id="new-page-icon">
<path id="Vector" d="M4.5 17.9072C4.0875 17.9072 3.73437 17.7604 3.44062 17.4666C3.14687 17.1729 3 16.8197 3 16.4072V5.40723C3 4.99473 3.14687 4.6416 3.44062 4.34785C3.73437 4.0541 4.0875 3.90723 4.5 3.90723H10V5.40723H4.5V16.4072H15.5V10.9072H17V16.4072C17 16.8197 16.8531 17.1729 16.5594 17.4666C16.2656 17.7604 15.9125 17.9072 15.5 17.9072H4.5ZM8.0625 13.9072L7 12.8447L14.4375 5.40723H12V3.90723H17V8.90723H15.5V6.46973L8.0625 13.9072Z" fill="#B5B5B5"/>
</g>
</svg>
